<?xml version="1.0" standalone="no"?>
<!DOCTYPE svg PUBLIC "-//W3C//DTD SVG 20010904//EN"
 "http://www.w3.org/TR/2001/REC-SVG-20010904/DTD/svg10.dtd">
<svg version="1.0" xmlns="http://www.w3.org/2000/svg"
 width="350.000000pt" height="489.000000pt" viewBox="0 0 350.000000 489.000000"
 preserveAspectRatio="xMidYMid meet">

<g transform="translate(0.000000,489.000000) scale(0.100000,-0.100000)"
fill="#000000" stroke="none">
<path d="M1360 4818 c-67 -10 -200 -71 -233 -107 -33 -34 -81 -131 -104 -206
-25 -83 -25 -317 0 -432 20 -95 56 -207 90 -284 15 -34 27 -86 32 -135 4 -43
29 -160 56 -259 27 -99 49 -201 49 -227 0 -44 -2 -49 -32 -61 -52 -22 -72 -50
-65 -93 7 -41 20 -54 57 -54 41 0 85 -34 109 -85 30 -64 31 -181 3 -285 -38
-140 -75 -205 -120 -213 -15 -3 -72 -13 -127 -22 -124 -21 -362 -79 -433 -105
-28 -11 -69 -31 -90 -45 -29 -19 -60 -28 -128 -35 -197 -23 -220 -29 -267 -71
-95 -83 -113 -198 -62 -379 15 -52 33 -121 40 -153 15 -65 42 -110 123 -206
120 -141 138 -200 82 -264 -16 -18 -47 -42 -70 -52 -24 -11 -39 -24 -36 -31 7
-19 237 -284 246 -284 5 0 33 27 63 60 29 33 59 60 65 60 28 0 70 -207 79
-393 l6 -127 73 -45 c83 -50 159 -76 329 -111 199 -42 302 -53 478 -54 278 0
515 40 717 122 142 57 163 72 188 136 41 98 59 106 185 78 101 -23 203 -36
280 -36 71 0 142 13 151 29 3 4 14 54 26 112 11 57 27 138 35 179 9 41 19 140
24 220 6 104 14 154 26 178 22 42 31 107 16 116 -14 9 -14 22 2 38 7 7 24 29
37 48 37 53 61 69 103 70 33 0 37 2 33 23 -3 12 -13 59 -21 105 -9 46 -23 99
-31 117 -13 32 -17 34 -71 37 -67 4 -69 6 -139 174 -93 226 -194 320 -386 358
-109 23 -215 21 -269 -4 -53 -24 -134 -26 -209 -5 -30 9 -88 22 -128 29 -48 9
-78 20 -87 32 -8 11 -30 70 -50 132 -20 63 -45 135 -56 160 -20 46 -20 49 -3
187 19 158 30 185 75 185 41 0 66 15 84 50 28 54 20 83 -31 115 -46 29 -46 30
-41 75 4 34 76 264 114 366 2 6 -10 17 -26 24 -23 9 -31 19 -32 39 0 28 2 32
-30 -44 -15 -38 -15 -35 -34 -185 -9 -69 -21 -153 -26 -187 -12 -69 -16 -71
-79 -53 -84 25 -124 29 -160 13 -46 -19 -206 -29 -244 -14 -27 11 -28 12 -11
25 17 12 15 14 -23 21 -55 9 -100 -2 -127 -31 l-23 -25 -11 33 c-6 18 -16 89
-21 158 -14 178 -20 211 -45 250 -29 47 -107 219 -138 305 -54 152 -77 282
-77 436 0 195 34 315 109 382 37 33 128 83 137 75 1 -2 -9 -46 -23 -98 -24
-87 -26 -112 -27 -295 -1 -174 2 -213 22 -303 29 -129 64 -235 110 -332 56
-120 56 -114 -32 305 -20 94 -41 230 -48 303 -11 117 -10 144 6 240 30 177 59
221 138 208 47 -8 100 -40 152 -94 35 -37 38 -43 31 -81 -6 -39 5 -56 20 -31
8 13 52 13 117 -2 67 -15 134 -80 176 -171 48 -102 57 -155 56 -342 0 -156 -2
-177 -27 -253 -27 -83 -35 -142 -18 -142 12 0 67 125 82 190 9 36 14 119 14
242 0 183 0 188 20 182 28 -9 54 -33 73 -69 26 -47 22 -361 -6 -470 -11 -44
-19 -81 -17 -83 5 -6 63 180 75 246 19 96 9 215 -25 290 -31 69 -65 104 -120
122 -19 6 -35 16 -35 22 0 6 -20 39 -45 73 -80 112 -149 172 -225 195 -31 9
-58 28 -87 60 -61 69 -148 132 -191 139 -20 4 -62 3 -92 -1z m-147 -1295 c3
-5 7 -33 11 -63 l5 -55 -14 44 c-8 24 -17 52 -20 62 -6 18 9 27 18 12z m883
-68 c-18 -49 -21 -18 -3 39 8 27 13 34 15 21 1 -11 -4 -38 -12 -60z m-847
-128 c1 -5 -3 -5 -9 -2 -5 3 -10 16 -9 28 0 21 1 21 9 2 5 -11 9 -24 9 -28z
m841 -252 c13 -16 8 -81 -7 -96 -4 -4 -19 -9 -33 -11 -23 -3 -25 0 -23 36 3
39 26 86 42 86 5 0 14 -7 21 -15z m-842 -12 c5 -10 12 -35 15 -55 5 -36 4 -38
-22 -38 -15 0 -32 5 -39 12 -16 16 -15 85 1 91 23 10 36 7 45 -10z m463 -80
c42 -102 135 -123 218 -49 l24 21 -6 -40 c-4 -22 -17 -109 -29 -193 l-22 -152
-250 2 -251 3 -17 120 c-9 66 -19 139 -23 162 l-6 41 40 -5 c93 -13 154 14
203 87 17 25 17 25 17 -28 1 -50 -1 -54 -30 -64 -22 -7 -27 -14 -20 -21 12
-12 92 -14 134 -4 46 12 29 47 -24 47 -22 0 -23 10 -7 98 9 47 14 60 20 46 4
-11 17 -43 29 -71z m-348 -453 l18 -30 269 0 c266 0 269 0 281 22 9 17 13 18
19 7 13 -22 80 -274 80 -297 0 -27 -75 -84 -148 -112 -70 -26 -188 -38 -290
-29 -87 7 -292 74 -335 109 l-21 18 48 171 c27 94 52 171 55 171 4 0 15 -13
24 -30z m-661 -381 c51 -12 100 -26 108 -31 10 -6 6 -7 -15 -3 -16 4 -53 10
-80 15 -45 7 -131 37 -113 39 3 1 48 -9 100 -20z m253 -94 c22 -14 36 -25 30
-25 -5 1 -28 12 -50 25 -22 14 -35 25 -30 25 6 -1 28 -12 50 -25z m1710 -285
c58 -114 68 -123 142 -116 l58 6 -50 -18 c-48 -16 -50 -19 -53 -57 -3 -38 -8
-31 -98 154 -52 106 -94 196 -94 200 0 9 46 -73 95 -169z m-1500 26 c30 -41
62 -92 72 -113 24 -50 36 -57 112 -63 l65 -5 17 -56 c27 -94 30 -109 19 -109
-5 0 -10 11 -10 24 0 13 -12 49 -26 81 l-27 58 -86 -6 c-47 -4 -99 -9 -116
-12 -25 -4 -24 -2 7 8 20 6 39 15 43 18 10 10 -17 67 -71 149 -27 41 -53 81
-57 88 -4 6 -6 12 -3 12 3 0 31 -33 61 -74z m1892 -112 c-3 -3 -12 -4 -19 -1
-8 3 -5 6 6 6 11 1 17 -2 13 -5z m-49 -11 c-10 -2 -26 -2 -35 0 -10 3 -2 5 17
5 19 0 27 -2 18 -5z m-101 -9 c-3 -3 -12 -4 -19 -1 -8 3 -5 6 6 6 11 1 17 -2
13 -5z m-1767 -84 c-8 -5 -24 -9 -35 -9 l-20 0 20 9 c11 5 27 9 35 9 13 1 13
0 0 -9z m2000 -112 c0 -28 -19 -39 -79 -49 -80 -12 -142 -41 -270 -123 -94
-59 -109 -65 -140 -60 -20 4 -39 9 -43 13 -9 8 135 125 208 171 29 17 69 38
90 45 51 19 234 20 234 3z m-2400 -63 c0 -2 -13 -11 -30 -20 -38 -19 -40 -11
-2 9 31 17 32 18 32 11z m2498 -41 c4 -44 -36 -76 -127 -97 -40 -10 -115 -41
-168 -69 l-95 -51 -56 27 -55 27 79 51 c90 58 223 123 280 137 22 5 62 9 89 8
48 -2 50 -3 53 -33z m-1894 3 c14 -14 26 -42 30 -68 12 -80 56 -312 77 -406
21 -95 32 -109 63 -78 8 8 17 24 21 35 5 17 96 60 128 60 7 0 59 -34 117 -76
120 -87 256 -172 335 -211 30 -15 55 -30 55 -34 0 -18 -212 -173 -319 -233
-95 -54 -347 -164 -437 -190 -35 -11 -209 117 -392 288 -69 65 -288 315 -336
384 l-28 41 51 70 c97 130 321 315 489 403 85 44 114 47 146 15z m-789 -75
c-36 -31 -135 -96 -135 -88 0 6 131 96 139 96 3 0 1 -4 -4 -8z m1743 -42 c300
-32 516 -107 679 -234 39 -31 76 -56 82 -56 14 0 14 27 1 35 -6 4 -8 11 -4 16
5 9 78 49 88 49 14 0 17 -85 7 -188 -11 -112 -61 -364 -81 -409 -9 -22 -15
-23 -107 -23 -292 0 -625 105 -942 297 -83 50 -302 195 -340 224 -23 18 -24
18 -55 -5 -44 -33 -92 -48 -104 -33 -14 19 -67 255 -59 263 12 13 259 51 427
67 83 8 318 6 408 -3z m902 -34 c0 -38 -43 -81 -124 -122 l-74 -38 -41 28
c-23 16 -41 32 -41 37 0 18 70 55 160 86 115 39 120 39 120 9z"/>
<path d="M1825 2779 c-27 -16 -60 -29 -72 -29 -32 0 -29 -18 5 -26 15 -3 33
-8 40 -10 40 -12 92 33 92 81 0 20 -5 18 -65 -16z"/>
<path d="M1571 4492 c-5 -10 -17 -56 -27 -102 -25 -127 -11 -304 38 -480 31
-108 37 -105 18 7 -42 235 -48 408 -21 551 9 46 7 52 -8 24z"/>
<path d="M1765 3323 c6 -6 30 -13 55 -17 33 -5 42 -4 34 4 -6 6 -31 14 -55 17
-29 4 -41 2 -34 -4z"/>
</g>
</svg>
