<svg width="42" height="35" viewBox="0 0 42 35" fill="none" xmlns="http://www.w3.org/2000/svg">
<g filter="url(#filter0_d_2148_1659)">
<g filter="url(#filter1_d_2148_1659)">
<path d="M16.96 13.1525L12.3425 17L16.96 20.8475C17.1132 20.973 17.24 21.1276 17.3331 21.3023C17.4262 21.477 17.4838 21.6685 17.5025 21.8656C17.5213 22.0627 17.5008 22.2615 17.4423 22.4507C17.3839 22.6399 17.2885 22.8156 17.1618 22.9677C17.0351 23.1198 16.8795 23.2454 16.704 23.3371C16.5285 23.4288 16.3367 23.4848 16.1394 23.502C15.9422 23.5192 15.7435 23.4971 15.5548 23.4372C15.3661 23.3772 15.1912 23.2804 15.04 23.1525L9.04005 18.1525C8.87106 18.0117 8.7351 17.8355 8.64179 17.6363C8.54849 17.4372 8.50012 17.2199 8.50012 17C8.50012 16.78 8.54849 16.5628 8.64179 16.3636C8.7351 16.1645 8.87106 15.9883 9.04005 15.8475L15.04 10.8475C15.3461 10.5966 15.739 10.4769 16.1329 10.5144C16.5269 10.5519 16.8901 10.7436 17.1434 11.0476C17.3967 11.3517 17.5195 11.7436 17.4852 12.1378C17.4508 12.5321 17.2621 12.8968 16.96 13.1525ZM38.96 15.8475L32.96 10.8475C32.8089 10.7196 32.634 10.6228 32.4453 10.5628C32.2566 10.5028 32.0579 10.4808 31.8607 10.498C31.6634 10.5152 31.4715 10.5712 31.2961 10.6629C31.1206 10.7546 30.965 10.8802 30.8383 11.0323C30.7116 11.1844 30.6162 11.3601 30.5578 11.5493C30.4993 11.7384 30.4788 11.9373 30.4976 12.1344C30.5163 12.3315 30.5739 12.5229 30.667 12.6977C30.7601 12.8724 30.8869 13.027 31.04 13.1525L35.6575 17L31.04 20.8475C30.8869 20.973 30.7601 21.1276 30.667 21.3023C30.5739 21.477 30.5163 21.6685 30.4976 21.8656C30.4788 22.0627 30.4993 22.2615 30.5578 22.4507C30.6162 22.6399 30.7116 22.8156 30.8383 22.9677C30.965 23.1198 31.1206 23.2454 31.2961 23.3371C31.4715 23.4288 31.6634 23.4848 31.8607 23.502C32.0579 23.5192 32.2566 23.4971 32.4453 23.4372C32.634 23.3772 32.8089 23.2804 32.96 23.1525L38.96 18.1525C39.129 18.0117 39.265 17.8355 39.3583 17.6363C39.4516 17.4372 39.5 17.2199 39.5 17C39.5 16.78 39.4516 16.5628 39.3583 16.3636C39.265 16.1645 39.129 15.9883 38.96 15.8475ZM28.5125 4.58999C28.3274 4.52265 28.1308 4.49245 27.9339 4.50112C27.7371 4.50978 27.5439 4.55714 27.3654 4.64048C27.1868 4.72382 27.0265 4.84152 26.8935 4.98686C26.7604 5.13219 26.6573 5.3023 26.59 5.48749L18.59 27.4875C18.4544 27.8613 18.4728 28.2736 18.6411 28.6339C18.8094 28.9942 19.1138 29.2729 19.4875 29.4087C19.6516 29.4693 19.8252 29.5002 20 29.5C20.308 29.5 20.6085 29.4053 20.8608 29.2286C21.1131 29.052 21.3048 28.8019 21.41 28.5125L29.41 6.51249C29.4774 6.32733 29.5076 6.13071 29.4989 5.93388C29.4903 5.73704 29.4429 5.54384 29.3596 5.36531C29.2762 5.18679 29.1585 5.02643 29.0132 4.89339C28.8678 4.76036 28.6977 4.65726 28.5125 4.58999Z" fill="#82BC4F"/>
<path d="M18.2464 14.684L18.2403 14.689L15.4668 17L18.2353 19.3068C18.5747 19.5865 18.8582 19.9276 19.0711 20.3121L24.7102 4.80459C24.7103 4.80439 24.7104 4.8042 24.7105 4.804C24.8674 4.37212 25.1079 3.97539 25.4182 3.63645C25.7286 3.29734 26.1028 3.0227 26.5194 2.82823C26.9359 2.63376 27.3867 2.52327 27.846 2.50305C28.3051 2.48284 28.7636 2.55323 29.1954 2.71019L18.2464 14.684ZM18.2464 14.684L18.2523 14.6789C18.9571 14.0823 19.3975 13.2313 19.4776 12.3113C19.5578 11.3914 19.2711 10.4771 18.6801 9.76759C18.0891 9.05808 17.2416 8.61087 16.3224 8.5234C15.4031 8.43593 14.4865 8.71528 13.7723 9.30059L13.766 9.30579L13.7597 9.31104L7.75995 14.3108C7.75986 14.3109 7.75977 14.311 7.75968 14.311C7.3655 14.6395 7.04835 15.0506 6.83069 15.5152C6.61298 15.9799 6.50012 16.4868 6.50012 17C6.50012 17.5132 6.61298 18.0201 6.83069 18.4848C7.04835 18.9494 7.3655 19.3605 7.75968 19.6889C7.75977 19.689 7.75986 19.6891 7.75995 19.6892L13.7548 24.6849C14.1058 24.9804 14.5115 25.2041 14.9488 25.3431C15.3891 25.4831 15.8527 25.5345 16.3129 25.4945C16.6403 25.4659 16.9614 25.3915 17.2669 25.2739L16.7105 26.804L16.7099 26.8054C16.3935 27.6776 16.4364 28.6398 16.8291 29.4804C17.221 30.3194 17.9295 30.9689 18.7993 31.2866M18.2464 14.684L18.7993 31.2866M18.7993 31.2866C19.1842 31.4281 19.5911 31.5004 20.0012 31.5M18.7993 31.2866L31.2896 7.19602L30.7332 8.72605C31.0387 8.60845 31.3598 8.53403 31.6872 8.50551C32.1474 8.46543 32.611 8.51685 33.0513 8.65683C33.4885 8.79584 33.8941 9.01945 34.2451 9.31491L40.2402 14.3108C40.2402 14.3109 40.2403 14.311 40.2404 14.311C40.6346 14.6395 40.9517 15.0505 41.1694 15.5152C41.3871 15.9799 41.5 16.4868 41.5 17C41.5 17.5132 41.3871 18.0201 41.1694 18.4848C40.9517 18.9494 40.6346 19.3605 40.2404 19.6889C40.2403 19.689 40.2402 19.6891 40.2402 19.6892L34.2452 24.685C33.8942 24.9805 33.4886 25.2041 33.0513 25.3431C32.611 25.4831 32.1474 25.5345 31.6871 25.4945C31.2269 25.4544 30.7792 25.3236 30.3697 25.1096C29.9603 24.8956 29.5973 24.6027 29.3016 24.2477C29.0059 23.8928 28.7834 23.4828 28.647 23.0414C28.5105 22.6 28.4628 22.136 28.5066 21.6761C28.5503 21.2162 28.6847 20.7695 28.902 20.3618C29.1177 19.957 29.4108 19.5985 29.7648 19.3068L32.5332 17L29.7647 14.6932C29.4254 14.4134 29.1419 14.0724 28.9289 13.6879L23.2897 29.1958C23.2897 29.1959 23.2897 29.1959 23.2896 29.196C23.0441 29.8713 22.5967 30.4546 22.0081 30.8668C21.4199 31.2788 20.7193 31.4998 20.0012 31.5M20.0012 31.5C20.0007 31.5 20.0002 31.5 19.9997 31.5L20 29.5L20.0027 31.5C20.0022 31.5 20.0017 31.5 20.0012 31.5ZM31.497 5.84594C31.5172 6.3052 31.4467 6.76394 31.2896 7.19597L31.497 5.84594ZM31.497 5.84594C31.4768 5.38665 31.3663 4.93584 31.1718 4.51928M31.497 5.84594L31.1718 4.51928M31.1718 4.51928C30.9773 4.10273 30.7027 3.72855 30.3636 3.41813M31.1718 4.51928L30.3636 3.41813M30.3636 3.41813C30.0247 3.10788 29.6279 2.8674 29.1961 2.71042L30.3636 3.41813Z" stroke="#16181D" stroke-width="4"/>
</g>
</g>
<defs>
<filter id="filter0_d_2148_1659" x="0.500122" y="0.499664" width="46.9999" height="41.0003" filterUnits="userSpaceOnUse" color-interpolation-filters="sRGB">
<feFlood flood-opacity="0" result="BackgroundImageFix"/>
<feColorMatrix in="SourceAlpha" type="matrix" values="0 0 0 0 0 0 0 0 0 0 0 0 0 0 0 0 0 0 127 0" result="hardAlpha"/>
<feOffset dy="4"/>
<feGaussianBlur stdDeviation="2"/>
<feComposite in2="hardAlpha" operator="out"/>
<feColorMatrix type="matrix" values="0 0 0 0 0 0 0 0 0 0 0 0 0 0 0 0 0 0 0.25 0"/>
<feBlend mode="normal" in2="BackgroundImageFix" result="effect1_dropShadow_2148_1659"/>
<feBlend mode="normal" in="SourceGraphic" in2="effect1_dropShadow_2148_1659" result="shape"/>
</filter>
<filter id="filter1_d_2148_1659" x="0.500122" y="0.499664" width="46.9999" height="41.0003" filterUnits="userSpaceOnUse" color-interpolation-filters="sRGB">
<feFlood flood-opacity="0" result="BackgroundImageFix"/>
<feColorMatrix in="SourceAlpha" type="matrix" values="0 0 0 0 0 0 0 0 0 0 0 0 0 0 0 0 0 0 127 0" result="hardAlpha"/>
<feOffset dy="4"/>
<feGaussianBlur stdDeviation="2"/>
<feComposite in2="hardAlpha" operator="out"/>
<feColorMatrix type="matrix" values="0 0 0 0 0 0 0 0 0 0 0 0 0 0 0 0 0 0 0.25 0"/>
<feBlend mode="normal" in2="BackgroundImageFix" result="effect1_dropShadow_2148_1659"/>
<feBlend mode="normal" in="SourceGraphic" in2="effect1_dropShadow_2148_1659" result="shape"/>
</filter>
</defs>
</svg>
